<?xml version="1.0" encoding="UTF-8"?>
<svg width="22px" height="16px" viewBox="0 0 22 16" version="1.1" xmlns="http://www.w3.org/2000/svg" xmlns:xlink="http://www.w3.org/1999/xlink">
    <!-- Generator: Sketch 47.1 (45422) - http://www.bohemiancoding.com/sketch -->
    <title>Nutanix X</title>
    <desc>Created with Sketch.</desc>
    <defs></defs>
    <g id="G.-Icons-and-Colors" stroke="none" stroke-width="1" fill="none" fill-rule="evenodd">
        <g id="Icons" transform="translate(-388.000000, -728.000000)" fill="#515A67">
            <path d="M393.058247,743.901535 C392.994344,743.962363 392.909078,744 392.815413,744 L388.359321,744 C388.160855,744 388,743.832153 388,743.625339 C388,743.522121 388.040168,743.428599 388.105167,743.361118 L395.913827,736.286081 C395.992155,736.217459 396.041817,736.114622 396.041817,735.99962 C396.041817,735.89089 395.997267,735.793185 395.926425,735.724944 L388.12726,728.659982 C388.049297,728.591361 388,728.489094 388,728.374471 C388,728.167847 388.160855,728 388.359321,728 L392.815413,728 C392.909443,728 392.995074,728.037447 393.058978,728.098845 L401.465411,735.717151 C401.541547,735.785582 401.589566,735.886518 401.589566,735.99962 C401.589566,736.112912 401.541365,736.214608 401.464863,736.28342 L393.058247,743.901535 Z M404.938284,743.892278 L400.614929,739.974423 C400.536236,739.905232 400.486574,739.802586 400.486574,739.687394 C400.486574,739.59064 400.521995,739.50244 400.579873,739.43591 L402.804998,737.419482 C402.870728,737.344398 402.96567,737.297067 403.071202,737.297067 C403.170527,737.297067 403.260175,737.338886 403.325356,737.406176 L409.858499,743.327534 C409.944495,743.395965 410,743.503933 410,743.625398 C410,743.832021 409.839145,743.999867 409.640679,743.999867 L405.190247,743.999867 C405.092201,743.999867 405.003101,743.958808 404.938284,743.892278 Z M404.938284,728.107398 C405.003101,728.041058 405.092201,728 405.190247,728 L409.640679,728 C409.839145,728 410,728.167846 410,728.374469 C410,728.495933 409.944495,728.603712 409.858499,728.672143 L403.325356,734.593501 C403.260175,734.660981 403.170527,734.7028 403.071202,734.7028 C402.96567,734.7028 402.870728,734.655659 402.804998,734.580385 L400.579873,732.563956 C400.521995,732.497426 400.486574,732.409227 400.486574,732.312473 C400.486574,732.197471 400.536236,732.094635 400.614929,732.025634 L404.938284,728.107398 Z" id="Nutanix-X"></path>
        </g>
    </g>
</svg>